<svg width="683" height="1002" viewBox="0 0 683 1002" fill="none" xmlns="http://www.w3.org/2000/svg">
<g clip-path="url(#clip0_25_816)">
<path opacity="0.2" d="M444.57 826.314C529.104 1065.89 739.237 1008.47 834.547 949.171C981.567 843.507 997.742 626.309 999.967 542.103C1001.75 474.739 1058.26 303.318 1086.29 226.028C1115.11 -40.912 843.814 0.833612 795.515 6.26557C747.215 11.6976 593.662 71.4673 441.083 40.606C319.02 15.917 205.529 28.8791 164.042 38.4462C-13.0064 100.952 -2.22147 200.043 3.13043 242.954C8.48243 285.864 53.2822 366.319 234.465 453.073C379.411 522.475 435.469 730.386 444.57 826.314Z" fill="url(#paint0_linear_25_816)"/>
</g>
<defs>
<linearGradient id="paint0_linear_25_816" x1="844.274" y1="950.214" x2="424.319" y2="-69.4782" gradientUnits="userSpaceOnUse">
<stop offset="0.384615" stop-color="#F24570"/>
<stop offset="1" stop-color="#D2EAEF"/>
</linearGradient>
<clipPath id="clip0_25_816">
<rect width="1089" height="1002" fill="white"/>
</clipPath>
</defs>
</svg>
